<?xml version="1.0" encoding="UTF-8" standalone="no"?>
<!-- Created with Inkscape (http://www.inkscape.org/) -->

<svg
   width="7cm"
   height="7cm"
   viewBox="0 0 70 70.000001"
   version="1.1"
   id="svg1"
   inkscape:version="1.4 (86a8ad7, 2024-10-11)"
   sodipodi:docname="Nuage marron avec pieds noirs.svg"
   xmlns:inkscape="http://www.inkscape.org/namespaces/inkscape"
   xmlns:sodipodi="http://sodipodi.sourceforge.net/DTD/sodipodi-0.dtd"
   xmlns="http://www.w3.org/2000/svg"
   xmlns:svg="http://www.w3.org/2000/svg">
  <sodipodi:namedview
     id="namedview1"
     pagecolor="#474747"
     bordercolor="#000000"
     borderopacity="0.25"
     inkscape:showpageshadow="2"
     inkscape:pageopacity="0.0"
     inkscape:pagecheckerboard="0"
     inkscape:deskcolor="#6a6a6a"
     inkscape:document-units="mm"
     inkscape:zoom="2.0334082"
     inkscape:cx="168.92821"
     inkscape:cy="137.45396"
     inkscape:window-width="1920"
     inkscape:window-height="1009"
     inkscape:window-x="-8"
     inkscape:window-y="-8"
     inkscape:window-maximized="1"
     inkscape:current-layer="layer1" />
  <defs
     id="defs1" />
  <g
     inkscape:label="Calque 1"
     inkscape:groupmode="layer"
     id="layer1">
    <path
       id="path87"
       style="fill:#791919;fill-opacity:0.995316;stroke:#faf9f9;stroke-width:0.290416;stroke-linecap:square;stroke-linejoin:miter;stroke-dasharray:none;stroke-dashoffset:15.2239;stroke-opacity:0.984314;paint-order:markers fill stroke"
       d="m 31.839817,15.945408 a 5.1837624,5.1837624 0 0 0 -4.90991,5.357432 5.1837624,5.1837624 0 0 0 0.16929,1.09406 5.1837624,5.1837624 0 0 0 -3.16872,-0.893557 5.1837624,5.1837624 0 0 0 -4.90991,5.357136 5.1837624,5.1837624 0 0 0 0.057,0.53908 7.2145128,7.2145075 0 0 0 -0.81101,-0.015 7.2145128,7.2145075 0 0 0 -6.8333,7.456101 7.2145128,7.2145075 0 0 0 7.33575,6.96206 7.2145128,7.2145075 0 0 0 2.87277,-0.65764 4.1149415,4.1149418 0 0 0 4.1274,3.43706 4.1149415,4.1149418 0 0 0 1.97922,-0.55829 4.1149415,4.1149418 0 0 0 4.113,3.35361 4.1149415,4.1149418 0 0 0 3.40644,-1.91557 4.1149415,4.1149418 0 0 0 3.5409,1.91557 4.1149415,4.1149418 0 0 0 3.97133,-3.38963 4.1149415,4.1149418 0 0 0 2.65545,0.91487 4.1149415,4.1149418 0 0 0 4.01725,-3.74862 7.2145081,7.2145075 0 0 0 3.30469,0.75549 7.2145081,7.2145075 0 0 0 7.08872,-7.21328 l -0.0174,-0.50245 a 7.2145081,7.2145075 0 0 0 -7.00167,-6.691921 5.1837624,5.1837624 0 0 0 -5.38265,-4.395449 5.1837624,5.1837624 0 0 0 -0.75758,0.09845 5.1837624,5.1837624 0 0 0 0.44062,-2.082764 l -0.0126,-0.360783 a 5.1837624,5.1837624 0 0 0 -5.44208,-4.815956 5.1837624,5.1837624 0 0 0 -4.64397,3.57032 5.1837624,5.1837624 0 0 0 -5.18905,-3.570321 z" />
    <g
       id="g90"
       transform="matrix(0.58083188,0,0,0.58083188,-43.241657,-45.541993)">
      <path
         style="opacity:0.8;fill:#000000;fill-opacity:0.996078;stroke:#241c1c;stroke-width:0.499998;stroke-linecap:square;stroke-linejoin:miter;stroke-dasharray:none;stroke-dashoffset:15.2239;stroke-opacity:0.984314;paint-order:markers fill stroke"
         id="path88"
         sodipodi:type="arc"
         sodipodi:cx="163.01224"
         sodipodi:cy="82.047882"
         sodipodi:rx="7.2689924"
         sodipodi:ry="7.9817314"
         sodipodi:start="0"
         sodipodi:end="3.1241394"
         sodipodi:arc-type="slice"
         d="m 170.28123,82.047882 a 7.2689924,7.9817314 0 0 1 -7.20556,7.981428 7.2689924,7.9817314 0 0 1 -7.33132,-7.842128 l 7.26789,-0.1393 z"
         transform="rotate(19.225253)" />
      <path
         style="opacity:0.8;fill:#ffffff;fill-opacity:0.996078;stroke:#241c1c;stroke-width:0.257628;stroke-linecap:square;stroke-linejoin:miter;stroke-dasharray:none;stroke-dashoffset:15.2239;stroke-opacity:0.984314;paint-order:markers fill stroke"
         id="path89"
         sodipodi:type="arc"
         sodipodi:cx="124.9108"
         sodipodi:cy="134.11229"
         sodipodi:rx="2.3695223"
         sodipodi:ry="2.3706951"
         sodipodi:start="0"
         sodipodi:end="6.230346"
         sodipodi:arc-type="arc"
         d="m 127.28032,134.11229 a 2.3695223,2.3706951 0 0 1 -2.33822,2.37049 2.3695223,2.3706951 0 0 1 -2.4,-2.30786 2.3695223,2.3706951 0 0 1 2.27482,-2.43146 2.3695223,2.3706951 0 0 1 2.46009,2.24362"
         sodipodi:open="true" />
      <path
         style="opacity:0.8;fill:#ffffff;fill-opacity:0.996078;stroke:#241c1c;stroke-width:0.103051;stroke-linecap:square;stroke-linejoin:miter;stroke-dasharray:none;stroke-dashoffset:15.2239;stroke-opacity:0.984314;paint-order:markers fill stroke"
         id="path90"
         sodipodi:type="arc"
         sodipodi:cx="129.48428"
         sodipodi:cy="134.63672"
         sodipodi:rx="0.94780928"
         sodipodi:ry="0.94827873"
         sodipodi:start="0"
         sodipodi:end="6.230346"
         sodipodi:arc-type="arc"
         d="m 130.43209,134.63672 a 0.94780928,0.94827873 0 0 1 -0.93529,0.94819 0.94780928,0.94827873 0 0 1 -0.96,-0.92314 0.94780928,0.94827873 0 0 1 0.90993,-0.97259 0.94780928,0.94827873 0 0 1 0.98404,0.89746"
         sodipodi:open="true" />
    </g>
    <g
       id="g93"
       transform="matrix(-0.58083188,0,0,0.58083188,115.6619,-45.523655)">
      <path
         style="opacity:0.8;fill:#000000;fill-opacity:0.996078;stroke:#241c1c;stroke-width:0.499998;stroke-linecap:square;stroke-linejoin:miter;stroke-dasharray:none;stroke-dashoffset:15.2239;stroke-opacity:0.984314;paint-order:markers fill stroke"
         id="path91"
         sodipodi:type="arc"
         sodipodi:cx="163.01224"
         sodipodi:cy="82.047882"
         sodipodi:rx="7.2689924"
         sodipodi:ry="7.9817314"
         sodipodi:start="0"
         sodipodi:end="3.1241394"
         sodipodi:arc-type="slice"
         d="m 170.28123,82.047882 a 7.2689924,7.9817314 0 0 1 -7.20556,7.981428 7.2689924,7.9817314 0 0 1 -7.33132,-7.842128 l 7.26789,-0.1393 z"
         transform="rotate(19.225253)" />
      <path
         style="opacity:0.8;fill:#ffffff;fill-opacity:0.996078;stroke:#241c1c;stroke-width:0.257628;stroke-linecap:square;stroke-linejoin:miter;stroke-dasharray:none;stroke-dashoffset:15.2239;stroke-opacity:0.984314;paint-order:markers fill stroke"
         id="path92"
         sodipodi:type="arc"
         sodipodi:cx="124.9108"
         sodipodi:cy="134.11229"
         sodipodi:rx="2.3695223"
         sodipodi:ry="2.3706951"
         sodipodi:start="0"
         sodipodi:end="6.230346"
         sodipodi:arc-type="arc"
         d="m 127.28032,134.11229 a 2.3695223,2.3706951 0 0 1 -2.33822,2.37049 2.3695223,2.3706951 0 0 1 -2.4,-2.30786 2.3695223,2.3706951 0 0 1 2.27482,-2.43146 2.3695223,2.3706951 0 0 1 2.46009,2.24362"
         sodipodi:open="true" />
      <path
         style="opacity:0.8;fill:#ffffff;fill-opacity:0.996078;stroke:#241c1c;stroke-width:0.103051;stroke-linecap:square;stroke-linejoin:miter;stroke-dasharray:none;stroke-dashoffset:15.2239;stroke-opacity:0.984314;paint-order:markers fill stroke"
         id="path93"
         sodipodi:type="arc"
         sodipodi:cx="129.48428"
         sodipodi:cy="134.63672"
         sodipodi:rx="0.94780928"
         sodipodi:ry="0.94827873"
         sodipodi:start="0"
         sodipodi:end="6.230346"
         sodipodi:arc-type="arc"
         d="m 130.43209,134.63672 a 0.94780928,0.94827873 0 0 1 -0.93529,0.94819 0.94780928,0.94827873 0 0 1 -0.96,-0.92314 0.94780928,0.94827873 0 0 1 0.90993,-0.97259 0.94780928,0.94827873 0 0 1 0.98404,0.89746"
         sodipodi:open="true" />
    </g>
    <path
       style="opacity:0.8;fill:#ffffff;fill-opacity:0.984314;stroke:#010000;stroke-width:0.297013;stroke-linecap:square;stroke-linejoin:miter;stroke-dasharray:none;stroke-dashoffset:15.2239;stroke-opacity:0.984314;paint-order:markers fill stroke"
       d="m 38.441447,29.8708 c 3.69403,-3.698581 3.33495,-3.74709 3.33495,-3.74709"
       id="path94" />
    <g
       id="g95"
       transform="translate(-84.001525,-37.597556)">
      <path
         style="opacity:0.8;fill:#000000;fill-opacity:0.984314;stroke:#000000;stroke-width:0.355872;stroke-linecap:square;stroke-linejoin:miter;stroke-dasharray:none;stroke-dashoffset:15.2239;stroke-opacity:0.984314;paint-order:markers fill stroke"
         id="path95"
         sodipodi:type="arc"
         sodipodi:cx="120.22918"
         sodipodi:cy="-79.183907"
         sodipodi:rx="3.1949999"
         sodipodi:ry="5.2187347"
         sodipodi:start="0"
         sodipodi:end="3.1415927"
         sodipodi:arc-type="slice"
         d="m 123.42418,-79.183907 a 3.1949999,5.2187347 0 0 1 -1.5975,4.519557 3.1949999,5.2187347 0 0 1 -3.195,0 3.1949999,5.2187347 0 0 1 -1.5975,-4.519557 h 3.195 z"
         transform="scale(1,-1)" />
      <rect
         style="opacity:0.8;fill:#ffffff;fill-opacity:0.984314;stroke:#ffffff;stroke-width:0.463648;stroke-linecap:square;stroke-linejoin:miter;stroke-dasharray:none;stroke-dashoffset:15.2239;stroke-opacity:0.984314;paint-order:markers fill stroke"
         id="rect95"
         width="6.0713563"
         height="0.13736357"
         x="117.17179"
         y="78.89669" />
    </g>
    <path
       style="opacity:0.8;fill:none;fill-opacity:0.984314;stroke:#000000;stroke-width:0.463;stroke-linecap:square;stroke-linejoin:miter;stroke-dasharray:none;stroke-dashoffset:15.2239;stroke-opacity:1;paint-order:markers fill stroke"
       d="m 32.921247,47.26816 c 0,6.11555 -2.27707,6.18062 -2.27707,6.18062 l -0.97588,-0.0651"
       id="path96" />
    <path
       style="opacity:0.8;fill:none;fill-opacity:0.984314;stroke:#000000;stroke-width:0.463;stroke-linecap:square;stroke-linejoin:miter;stroke-dasharray:none;stroke-dashoffset:15.2239;stroke-opacity:1;paint-order:markers fill stroke"
       d="m 37.330377,47.33322 c 0,6.11555 2.27707,6.18061 2.27707,6.18061 l 0.97588,-0.0651"
       id="path97" />
    <g
       id="g99"
       transform="matrix(1,0,0,-1,-98.042683,86.80715)"
       style="stroke:#ffffff;stroke-opacity:0.984314">
      <path
         style="opacity:0.8;fill:none;fill-opacity:0.984314;stroke:#ffffff;stroke-width:0.250001;stroke-linecap:square;stroke-linejoin:miter;stroke-dasharray:none;stroke-dashoffset:15.2239;stroke-opacity:0.984314;paint-order:markers fill stroke"
         id="path98"
         sodipodi:arc-type="arc"
         sodipodi:type="arc"
         sodipodi:cx="19.873953"
         sodipodi:cy="-131.43134"
         sodipodi:rx="4.2987924"
         sodipodi:ry="2.1818511"
         sodipodi:start="0.17453293"
         sodipodi:end="2.9670597"
         d="m 24.107437,-131.05246 a 4.2987924,2.1818511 0 0 1 -4.233484,1.80298 4.2987924,2.1818511 0 0 1 -4.233484,-1.80298"
         sodipodi:open="true"
         transform="matrix(-0.2418457,0.97031472,-0.96946751,-0.24521978,0,0)" />
      <path
         style="opacity:0.8;fill:none;fill-opacity:0.984314;stroke:#ffffff;stroke-width:0.188588;stroke-linecap:square;stroke-linejoin:miter;stroke-dasharray:none;stroke-dashoffset:15.2239;stroke-opacity:0.984314;paint-order:markers fill stroke"
         id="path99"
         sodipodi:type="arc"
         sodipodi:cx="-56.231369"
         sodipodi:cy="-120.93945"
         sodipodi:rx="0.61660165"
         sodipodi:ry="0.61446244"
         sodipodi:start="0"
         sodipodi:end="3.1415927"
         sodipodi:open="true"
         sodipodi:arc-type="arc"
         d="m -55.614767,-120.93945 a 0.61660165,0.61446244 0 0 1 -0.308301,0.53214 0.61660165,0.61446244 0 0 1 -0.616602,0 0.61660165,0.61446244 0 0 1 -0.308301,-0.53214"
         transform="rotate(139.5965)" />
    </g>
    <g
       id="g109"
       transform="matrix(1,0,0,-1,-14.57018,154.34513)">
      <path
         style="opacity:0.8;fill:none;fill-opacity:0.984314;stroke:#ffffff;stroke-width:0.250001;stroke-linecap:square;stroke-linejoin:miter;stroke-dasharray:none;stroke-dashoffset:15.2239;stroke-opacity:0.984314;paint-order:markers fill stroke"
         id="path100"
         sodipodi:arc-type="arc"
         sodipodi:type="arc"
         sodipodi:cx="130.6882"
         sodipodi:cy="30.690937"
         sodipodi:rx="4.2987924"
         sodipodi:ry="2.1818511"
         sodipodi:start="0.17453293"
         sodipodi:end="2.9670597"
         d="m 134.92169,31.069812 a 4.2987924,2.1818511 0 0 1 -4.23349,1.802976 4.2987924,2.1818511 0 0 1 -4.23348,-1.802976"
         sodipodi:open="true"
         transform="matrix(0.2418457,0.97031472,0.96946751,-0.24521978,0,0)" />
      <path
         style="opacity:0.8;fill:none;fill-opacity:0.984314;stroke:#ffffff;stroke-width:0.188588;stroke-linecap:square;stroke-linejoin:miter;stroke-dasharray:none;stroke-dashoffset:15.2239;stroke-opacity:0.984314;paint-order:markers fill stroke"
         id="path101"
         sodipodi:type="arc"
         sodipodi:cx="127.78889"
         sodipodi:cy="-53.300915"
         sodipodi:rx="0.61660165"
         sodipodi:ry="0.61446244"
         sodipodi:start="0"
         sodipodi:end="3.1415927"
         sodipodi:open="true"
         sodipodi:arc-type="arc"
         d="m 128.40549,-53.300915 a 0.61660165,0.61446244 0 0 1 -0.3083,0.53214 0.61660165,0.61446244 0 0 1 -0.6166,0 0.61660165,0.61446244 0 0 1 -0.3083,-0.53214"
         transform="matrix(0.76149871,0.64816642,0.64816642,-0.76149871,0,0)" />
    </g>
    <g
       id="g103"
       transform="rotate(-2.9469412,-36.788405,1990.2159)">
      <path
         style="opacity:0.8;fill:#ea0000;fill-opacity:0.995316;stroke:#000000;stroke-width:0.25;stroke-linecap:square;stroke-linejoin:miter;stroke-dasharray:none;stroke-dashoffset:15.2239;stroke-opacity:1;paint-order:markers fill stroke"
         id="path102"
         sodipodi:type="arc"
         sodipodi:cx="155.62131"
         sodipodi:cy="26.934458"
         sodipodi:rx="1.3011817"
         sodipodi:ry="5.0746083"
         sodipodi:start="0.17453293"
         sodipodi:end="0.16650134"
         sodipodi:arc-type="arc"
         d="m 156.90272,27.815654 a 1.3011817,5.0746083 0 0 1 -1.50479,4.118077 1.3011817,5.0746083 0 0 1 -1.05893,-5.860394 1.3011817,5.0746083 0 0 1 1.50053,-4.14161 1.3011817,5.0746083 0 0 1 1.06496,5.843761"
         sodipodi:open="true" />
      <path
         style="opacity:0.8;fill:#ea0000;fill-opacity:0.995316;stroke:#000000;stroke-width:0.25;stroke-linecap:square;stroke-linejoin:miter;stroke-dasharray:none;stroke-dashoffset:15.2239;stroke-opacity:1;paint-order:markers fill stroke"
         id="path103"
         sodipodi:type="arc"
         sodipodi:cx="155.58974"
         sodipodi:cy="33.461338"
         sodipodi:rx="1.0409453"
         sodipodi:ry="1.0409453"
         sodipodi:start="0.17453293"
         sodipodi:end="0.13923158"
         sodipodi:arc-type="arc"
         d="m 156.61487,33.642096 a 1.0409453,1.0409453 0 0 1 -1.19684,0.845928 1.0409453,1.0409453 0 0 1 -0.85645,-1.189323 1.0409453,1.0409453 0 0 1 1.18171,-0.86692 1.0409453,1.0409453 0 0 1 0.87732,1.174022"
         sodipodi:open="true" />
    </g>
    <g
       id="g105"
       transform="matrix(0.90207142,0,0,0.80558277,-85.039199,-3.368507)">
      <path
         style="opacity:0.8;fill:#ea0000;fill-opacity:0.995316;stroke:#000000;stroke-width:0.25;stroke-linecap:square;stroke-linejoin:miter;stroke-dasharray:none;stroke-dashoffset:15.2239;stroke-opacity:1;paint-order:markers fill stroke"
         id="path104"
         sodipodi:type="arc"
         sodipodi:cx="150.92892"
         sodipodi:cy="26.060387"
         sodipodi:rx="1.3011817"
         sodipodi:ry="5.0746083"
         sodipodi:start="0.17453293"
         sodipodi:end="0.16650134"
         sodipodi:arc-type="arc"
         d="m 152.21034,26.941583 a 1.3011817,5.0746083 0 0 1 -1.50479,4.118077 1.3011817,5.0746083 0 0 1 -1.05894,-5.860394 1.3011817,5.0746083 0 0 1 1.50054,-4.14161 1.3011817,5.0746083 0 0 1 1.06496,5.843761"
         sodipodi:open="true" />
      <path
         style="opacity:0.8;fill:#ea0000;fill-opacity:0.995316;stroke:#000000;stroke-width:0.25;stroke-linecap:square;stroke-linejoin:miter;stroke-dasharray:none;stroke-dashoffset:15.2239;stroke-opacity:1;paint-order:markers fill stroke"
         id="path105"
         sodipodi:type="arc"
         sodipodi:cx="150.89735"
         sodipodi:cy="32.587269"
         sodipodi:rx="1.0409453"
         sodipodi:ry="1.0409453"
         sodipodi:start="0.17453293"
         sodipodi:end="0.13923158"
         sodipodi:arc-type="arc"
         d="m 151.92249,32.768027 a 1.0409453,1.0409453 0 0 1 -1.19684,0.845928 1.0409453,1.0409453 0 0 1 -0.85646,-1.189323 1.0409453,1.0409453 0 0 1 1.18172,-0.86692 1.0409453,1.0409453 0 0 1 0.87732,1.174021"
         sodipodi:open="true" />
    </g>
    <path
       style="opacity:0.8;fill:#ffffff;fill-opacity:0.984314;stroke:#010000;stroke-width:0.297013;stroke-linecap:square;stroke-linejoin:miter;stroke-dasharray:none;stroke-dashoffset:15.2239;stroke-opacity:0.984314;paint-order:markers fill stroke"
       d="m 34.549137,29.8708 c -3.69403,-3.698581 -3.33495,-3.74709 -3.33495,-3.74709"
       id="path106" />
    <path
       style="opacity:0.8;fill:#480000;fill-opacity:0.995316;stroke:none;stroke-width:0.188776;stroke-linecap:square;stroke-linejoin:miter;stroke-dasharray:none;stroke-dashoffset:15.2239;stroke-opacity:0.996078;paint-order:markers fill stroke"
       id="path107"
       sodipodi:type="arc"
       sodipodi:cx="32.538574"
       sodipodi:cy="22.355541"
       sodipodi:rx="2.8964217"
       sodipodi:ry="2.8964217"
       sodipodi:start="0.26179939"
       sodipodi:end="0.19031065"
       sodipodi:arc-type="arc"
       d="m 35.336303,23.10519 a 2.8964217,2.8964217 0 0 1 -3.497259,2.06103 2.8964217,2.8964217 0 0 1 -2.123201,-3.459867 2.8964217,2.8964217 0 0 1 3.42137,-2.184694 2.8964217,2.8964217 0 0 1 2.245489,3.381781"
       sodipodi:open="true" />
  </g>
</svg>
