<?xml version="1.0" encoding="UTF-8" standalone="no"?>
<!-- Created with Inkscape (http://www.inkscape.org/) -->

<svg
   width="7cm"
   height="7cm"
   viewBox="0 0 70 70.000001"
   version="1.1"
   id="svg1"
   inkscape:version="1.4 (86a8ad7, 2024-10-11)"
   sodipodi:docname="Nuage vert.svg"
   xmlns:inkscape="http://www.inkscape.org/namespaces/inkscape"
   xmlns:sodipodi="http://sodipodi.sourceforge.net/DTD/sodipodi-0.dtd"
   xmlns="http://www.w3.org/2000/svg"
   xmlns:svg="http://www.w3.org/2000/svg">
  <sodipodi:namedview
     id="namedview1"
     pagecolor="#ffffff"
     bordercolor="#000000"
     borderopacity="0.25"
     inkscape:showpageshadow="2"
     inkscape:pageopacity="0.0"
     inkscape:pagecheckerboard="0"
     inkscape:deskcolor="#d1d1d1"
     inkscape:document-units="mm"
     inkscape:zoom="2.0334082"
     inkscape:cx="191.05854"
     inkscape:cy="102.04543"
     inkscape:window-width="1920"
     inkscape:window-height="1009"
     inkscape:window-x="-8"
     inkscape:window-y="-8"
     inkscape:window-maximized="1"
     inkscape:current-layer="layer1" />
  <defs
     id="defs1" />
  <g
     inkscape:label="Calque 1"
     inkscape:groupmode="layer"
     id="layer1">
    <g
       id="g4"
       transform="translate(-5.8153418,-214.57475)">
      <g
         id="g141"
         transform="matrix(0.58083443,0,0,0.58083443,-39.643993,130.66666)">
        <path
           id="path37"
           style="fill:#5ece63;fill-opacity:0.995316;stroke:#241c1c;stroke-width:0.5;stroke-linecap:square;stroke-linejoin:miter;stroke-dasharray:none;stroke-dashoffset:15.2239;stroke-opacity:0.984314;paint-order:markers fill stroke"
           d="m 131.56458,171.88186 a 8.9247208,8.9247208 0 0 0 -8.45323,9.22372 8.9247208,8.9247208 0 0 0 0.29146,1.88361 8.9247208,8.9247208 0 0 0 -5.45549,-1.53841 8.9247208,8.9247208 0 0 0 -8.45323,9.22321 8.9247208,8.9247208 0 0 0 0.0982,0.92811 12.421,12.420991 0 0 0 -1.3963,-0.0258 12.421,12.420991 0 0 0 -11.764657,12.83694 12.421,12.420991 0 0 0 12.629717,11.98635 12.421,12.420991 0 0 0 4.94596,-1.13223 7.0845656,7.0845661 0 0 0 7.10602,5.91747 7.0845656,7.0845661 0 0 0 3.40755,-0.96118 7.0845656,7.0845661 0 0 0 7.08122,5.77381 7.0845656,7.0845661 0 0 0 5.86476,-3.29799 7.0845656,7.0845661 0 0 0 6.09627,3.29799 7.0845656,7.0845661 0 0 0 6.8373,-5.83582 7.0845656,7.0845661 0 0 0 4.57182,1.57509 7.0845656,7.0845661 0 0 0 6.91637,-6.45387 12.420992,12.420991 0 0 0 5.68958,1.3007 12.420992,12.420991 0 0 0 12.20442,-12.41888 l -0.03,-0.86506 a 12.420992,12.420991 0 0 0 -12.05456,-11.52126 8.9247208,8.9247208 0 0 0 -9.26714,-7.5675 8.9247208,8.9247208 0 0 0 -1.30431,0.1695 8.9247208,8.9247208 0 0 0 0.75861,-3.58583 l -0.0217,-0.62115 a 8.9247208,8.9247208 0 0 0 -9.36945,-8.29148 8.9247208,8.9247208 0 0 0 -7.99538,6.14691 8.9247208,8.9247208 0 0 0 -8.93382,-6.14691 z" />
        <path
           style="opacity:0.8;fill:#000000;fill-opacity:0.995316;stroke:#010101;stroke-width:0.195892;stroke-linecap:square;stroke-linejoin:miter;stroke-dasharray:none;stroke-dashoffset:15.2239;stroke-opacity:0.984314;paint-order:markers fill stroke"
           id="path137"
           sodipodi:type="arc"
           sodipodi:cx="-137.54753"
           sodipodi:cy="-208.32272"
           sodipodi:rx="9.3470001"
           sodipodi:ry="10.733936"
           sodipodi:start="3.1415927"
           sodipodi:end="0"
           sodipodi:arc-type="slice"
           d="m -146.89453,-208.32272 a 9.3470001,10.733936 0 0 1 9.347,-10.73394 9.3470001,10.733936 0 0 1 9.347,10.73394 h -9.347 z"
           transform="matrix(-0.99993465,0.01143189,-0.00487597,-0.99998811,0,0)" />
        <path
           style="opacity:0.8;fill:#fdfdfd;fill-opacity:0.995316;stroke:none;stroke-width:0.592161;stroke-linecap:square;stroke-linejoin:miter;stroke-dasharray:none;stroke-dashoffset:15.2239;stroke-opacity:0.984314;paint-order:markers fill stroke"
           id="path138"
           sodipodi:type="arc"
           sodipodi:cx="-130.82013"
           sodipodi:cy="-209.28497"
           sodipodi:rx="8.4134455"
           sodipodi:ry="3.9332204"
           sodipodi:start="3.1415927"
           sodipodi:end="0"
           sodipodi:arc-type="slice"
           d="m -139.23357,-209.28497 a 8.4134455,3.9332204 0 0 1 8.41344,-3.93322 8.4134455,3.9332204 0 0 1 8.41345,3.93322 h -8.41345 z"
           transform="matrix(-0.9998617,0.01663054,-0.03713827,-0.99931014,0,0)" />
      </g>
      <g
         id="g140"
         transform="rotate(-33.222814,415.80978,320.28966)">
        <path
           style="opacity:0.8;fill:none;fill-opacity:0.984314;stroke:#000000;stroke-width:0.250001;stroke-linecap:square;stroke-linejoin:miter;stroke-dasharray:none;stroke-dashoffset:15.2239;stroke-opacity:1;paint-order:markers fill stroke"
           id="path139"
           sodipodi:arc-type="arc"
           sodipodi:type="arc"
           sodipodi:cx="19.873953"
           sodipodi:cy="-131.43134"
           sodipodi:rx="4.2987924"
           sodipodi:ry="2.1818511"
           sodipodi:start="0.17453293"
           sodipodi:end="2.9670597"
           d="m 24.107437,-131.05246 a 4.2987924,2.1818511 0 0 1 -4.233484,1.80298 4.2987924,2.1818511 0 0 1 -4.233484,-1.80298"
           sodipodi:open="true"
           transform="matrix(-0.2418457,0.97031472,-0.96946751,-0.24521978,0,0)" />
        <path
           style="opacity:0.8;fill:none;fill-opacity:0.984314;stroke:#000000;stroke-width:0.188588;stroke-linecap:square;stroke-linejoin:miter;stroke-dasharray:none;stroke-dashoffset:15.2239;stroke-opacity:1;paint-order:markers fill stroke"
           id="path140"
           sodipodi:type="arc"
           sodipodi:cx="-56.231369"
           sodipodi:cy="-120.93945"
           sodipodi:rx="0.61660165"
           sodipodi:ry="0.61446244"
           sodipodi:start="0"
           sodipodi:end="3.1415927"
           sodipodi:open="true"
           sodipodi:arc-type="arc"
           d="m -55.614767,-120.93945 a 0.61660165,0.61446244 0 0 1 -0.308301,0.53214 0.61660165,0.61446244 0 0 1 -0.616602,0 0.61660165,0.61446244 0 0 1 -0.308301,-0.53214"
           transform="rotate(139.5965)" />
      </g>
      <g
         id="g142"
         transform="rotate(-161.39134,107.12471,152.4938)">
        <path
           style="opacity:0.8;fill:none;fill-opacity:0.984314;stroke:#000000;stroke-width:0.250001;stroke-linecap:square;stroke-linejoin:miter;stroke-dasharray:none;stroke-dashoffset:15.2239;stroke-opacity:1;paint-order:markers fill stroke"
           id="path141"
           sodipodi:arc-type="arc"
           sodipodi:type="arc"
           sodipodi:cx="19.873953"
           sodipodi:cy="-131.43134"
           sodipodi:rx="4.2987924"
           sodipodi:ry="2.1818511"
           sodipodi:start="0.17453293"
           sodipodi:end="2.9670597"
           d="m 24.107437,-131.05246 a 4.2987924,2.1818511 0 0 1 -4.233484,1.80298 4.2987924,2.1818511 0 0 1 -4.233484,-1.80298"
           sodipodi:open="true"
           transform="matrix(-0.2418457,0.97031472,-0.96946751,-0.24521978,0,0)" />
        <path
           style="opacity:0.8;fill:none;fill-opacity:0.984314;stroke:#000000;stroke-width:0.188588;stroke-linecap:square;stroke-linejoin:miter;stroke-dasharray:none;stroke-dashoffset:15.2239;stroke-opacity:1;paint-order:markers fill stroke"
           id="path142"
           sodipodi:type="arc"
           sodipodi:cx="-56.231369"
           sodipodi:cy="-120.93945"
           sodipodi:rx="0.61660165"
           sodipodi:ry="0.61446244"
           sodipodi:start="0"
           sodipodi:end="3.1415927"
           sodipodi:open="true"
           sodipodi:arc-type="arc"
           d="m -55.614767,-120.93945 a 0.61660165,0.61446244 0 0 1 -0.308301,0.53214 0.61660165,0.61446244 0 0 1 -0.616602,0 0.61660165,0.61446244 0 0 1 -0.308301,-0.53214"
           transform="rotate(139.5965)" />
      </g>
      <path
         style="opacity:0.8;fill:none;fill-opacity:0.984314;stroke:#000000;stroke-width:0.463;stroke-linecap:square;stroke-linejoin:miter;stroke-dasharray:none;stroke-dashoffset:15.2239;stroke-opacity:1;paint-order:markers fill stroke"
         d="m 38.165812,261.96548 c 0,6.11555 -2.27707,6.18062 -2.27707,6.18062 l -0.97588,-0.0651"
         id="path143" />
      <path
         style="opacity:0.8;fill:none;fill-opacity:0.984314;stroke:#000000;stroke-width:0.463;stroke-linecap:square;stroke-linejoin:miter;stroke-dasharray:none;stroke-dashoffset:15.2239;stroke-opacity:1;paint-order:markers fill stroke"
         d="m 42.574942,262.03054 c 0,6.11555 2.27707,6.18061 2.27707,6.18061 l 0.97588,-0.0651"
         id="path144" />
      <path
         style="opacity:0.8;fill:none;fill-opacity:0.984314;stroke:#000000;stroke-width:0.30002;stroke-linecap:square;stroke-linejoin:miter;stroke-dasharray:none;stroke-dashoffset:15.2239;stroke-opacity:1;paint-order:markers fill stroke"
         id="path145"
         sodipodi:type="arc"
         sodipodi:cx="-17.169703"
         sodipodi:cy="-247.52264"
         sodipodi:rx="3.0266516"
         sodipodi:ry="1.5550468"
         sodipodi:start="0.17453293"
         sodipodi:end="2.9670597"
         sodipodi:arc-type="arc"
         d="m -14.189033,-247.25261 a 3.0266516,1.5550468 0 0 1 -2.98067,1.28501 3.0266516,1.5550468 0 0 1 -2.980669,-1.28501"
         sodipodi:open="true"
         transform="matrix(-0.99859748,0.05294408,-0.06920343,-0.99760257,0,0)" />
      <path
         style="opacity:0.8;fill:none;fill-opacity:0.984314;stroke:#000000;stroke-width:0.30002;stroke-linecap:square;stroke-linejoin:miter;stroke-dasharray:none;stroke-dashoffset:15.2239;stroke-opacity:1;paint-order:markers fill stroke"
         id="path146"
         sodipodi:type="arc"
         sodipodi:cx="-29.706488"
         sodipodi:cy="-248.18799"
         sodipodi:rx="3.0266516"
         sodipodi:ry="1.5550468"
         sodipodi:start="0.17453293"
         sodipodi:end="2.9670597"
         sodipodi:arc-type="arc"
         d="m -26.725818,-247.91796 a 3.0266516,1.5550468 0 0 1 -2.98067,1.28502 3.0266516,1.5550468 0 0 1 -2.98067,-1.28502"
         sodipodi:open="true"
         transform="matrix(-0.99859748,0.05294408,-0.06920343,-0.99760257,0,0)" />
      <path
         style="opacity:0.8;fill:#2a7100;fill-opacity:0.995316;stroke:none;stroke-width:0.188776;stroke-linecap:square;stroke-linejoin:miter;stroke-dasharray:none;stroke-dashoffset:15.2239;stroke-opacity:0.996078;paint-order:markers fill stroke"
         id="path107-8"
         sodipodi:type="arc"
         sodipodi:cx="50.694767"
         sodipodi:cy="254.95445"
         sodipodi:rx="2.8964217"
         sodipodi:ry="2.8964217"
         sodipodi:start="0.26179939"
         sodipodi:end="0.19031065"
         sodipodi:arc-type="arc"
         d="m 53.492495,255.7041 a 2.8964217,2.8964217 0 0 1 -3.497259,2.06103 2.8964217,2.8964217 0 0 1 -2.1232,-3.45987 2.8964217,2.8964217 0 0 1 3.42137,-2.18469 2.8964217,2.8964217 0 0 1 2.245489,3.38178"
         sodipodi:open="true" />
      <path
         style="opacity:0.8;fill:#2a7100;fill-opacity:0.995316;stroke:none;stroke-width:0.122034;stroke-linecap:square;stroke-linejoin:miter;stroke-dasharray:none;stroke-dashoffset:15.2239;stroke-opacity:0.996078;paint-order:markers fill stroke"
         id="path147"
         sodipodi:type="arc"
         sodipodi:cx="30.130943"
         sodipodi:cy="249.50215"
         sodipodi:rx="1.872382"
         sodipodi:ry="1.872382"
         sodipodi:start="0.26179939"
         sodipodi:end="0.19031065"
         sodipodi:arc-type="arc"
         d="m 31.939525,249.98676 a 1.872382,1.872382 0 0 1 -2.260791,1.33235 1.872382,1.872382 0 0 1 -1.372536,-2.23662 1.872382,1.872382 0 0 1 2.211734,-1.41229 1.872382,1.872382 0 0 1 1.451588,2.18614"
         sodipodi:open="true" />
      <path
         sodipodi:type="star"
         style="opacity:0.8;fill:#fff937;fill-opacity:0.995316;stroke:#000000;stroke-width:0.3;stroke-linecap:square;stroke-linejoin:miter;stroke-dasharray:none;stroke-dashoffset:15.2239;stroke-opacity:1;paint-order:markers fill stroke"
         id="path148"
         inkscape:flatsided="false"
         sodipodi:sides="4"
         sodipodi:cx="66.507942"
         sodipodi:cy="238.87944"
         sodipodi:r1="5.3974566"
         sodipodi:r2="2.6987283"
         sodipodi:arg1="0.74541948"
         sodipodi:arg2="1.5308176"
         inkscape:rounded="0"
         inkscape:randomized="0"
         d="m 70.474012,242.54043 -3.858207,-0.96442 -3.76885,1.2695 0.964415,-3.85821 -1.269498,-3.76885 3.858207,0.96442 3.768851,-1.2695 -0.964416,3.85821 z"
         inkscape:transform-center-x="0.41149379"
         inkscape:transform-center-y="-0.11221188"
         transform="matrix(0.33569807,-0.26452341,0.26452341,0.33569807,-30.186682,170.52435)" />
      <path
         sodipodi:type="star"
         style="opacity:0.8;fill:#fff937;fill-opacity:0.995316;stroke:#000000;stroke-width:0.3;stroke-linecap:square;stroke-linejoin:miter;stroke-dasharray:none;stroke-dashoffset:15.2239;stroke-opacity:1;paint-order:markers fill stroke"
         id="path149"
         inkscape:flatsided="false"
         sodipodi:sides="4"
         sodipodi:cx="66.507942"
         sodipodi:cy="238.87944"
         sodipodi:r1="5.3974566"
         sodipodi:r2="2.6987283"
         sodipodi:arg1="0.74541948"
         sodipodi:arg2="1.5308176"
         inkscape:rounded="0"
         inkscape:randomized="0"
         d="m 70.474012,242.54043 -3.858207,-0.96442 -3.76885,1.2695 0.964415,-3.85821 -1.269498,-3.76885 3.858207,0.96442 3.768851,-1.2695 -0.964416,3.85821 z"
         inkscape:transform-center-x="0.41149379"
         inkscape:transform-center-y="-0.11221188"
         transform="matrix(0.33569807,-0.26452341,0.26452341,0.33569807,-23.551142,172.7362)" />
      <path
         sodipodi:type="star"
         style="opacity:0.8;fill:#fff937;fill-opacity:0.995316;stroke:#000000;stroke-width:0.3;stroke-linecap:square;stroke-linejoin:miter;stroke-dasharray:none;stroke-dashoffset:15.2239;stroke-opacity:1;paint-order:markers fill stroke"
         id="path150"
         inkscape:flatsided="false"
         sodipodi:sides="4"
         sodipodi:cx="66.507942"
         sodipodi:cy="238.87944"
         sodipodi:r1="5.3974566"
         sodipodi:r2="2.6987283"
         sodipodi:arg1="0.74541948"
         sodipodi:arg2="1.5308176"
         inkscape:rounded="0"
         inkscape:randomized="0"
         d="m 70.474012,242.54043 -3.858207,-0.96442 -3.76885,1.2695 0.964415,-3.85821 -1.269498,-3.76885 3.858207,0.96442 3.768851,-1.2695 -0.964416,3.85821 z"
         inkscape:transform-center-x="0.19865063"
         inkscape:transform-center-y="-0.054170605"
         transform="matrix(0.16206011,-0.12770015,0.12770015,0.16206011,17.745008,206.2971)" />
    </g>
  </g>
</svg>
