<?xml version="1.0" encoding="UTF-8" standalone="no"?>
<!-- Created with Inkscape (http://www.inkscape.org/) -->

<svg
   width="7cm"
   height="7cm"
   viewBox="0 0 70 70"
   version="1.1"
   id="svg1"
   inkscape:version="1.4 (86a8ad7, 2024-10-11)"
   sodipodi:docname="Nuage_rouge.svg"
   xmlns:inkscape="http://www.inkscape.org/namespaces/inkscape"
   xmlns:sodipodi="http://sodipodi.sourceforge.net/DTD/sodipodi-0.dtd"
   xmlns="http://www.w3.org/2000/svg"
   xmlns:svg="http://www.w3.org/2000/svg">
  <sodipodi:namedview
     id="namedview1"
     pagecolor="#ffffff"
     bordercolor="#000000"
     borderopacity="0.25"
     inkscape:showpageshadow="2"
     inkscape:pageopacity="0.0"
     inkscape:pagecheckerboard="0"
     inkscape:deskcolor="#d1d1d1"
     inkscape:document-units="mm"
     inkscape:zoom="1.4378367"
     inkscape:cx="25.385358"
     inkscape:cy="144.31402"
     inkscape:window-width="1920"
     inkscape:window-height="1009"
     inkscape:window-x="-8"
     inkscape:window-y="-8"
     inkscape:window-maximized="1"
     inkscape:current-layer="layer1" />
  <defs
     id="defs1" />
  <g
     inkscape:label="Calque 1"
     inkscape:groupmode="layer"
     id="layer1">
    <g
       id="g4"
       transform="translate(-5.8853081,-116.36225)">
      <path
         id="path15"
         style="fill:#d40000;fill-opacity:0.995316;stroke:#241c1c;stroke-width:0.290416;stroke-linecap:square;stroke-linejoin:miter;stroke-dasharray:none;stroke-dashoffset:15.2239;stroke-opacity:0.984314;paint-order:markers fill stroke"
         d="m 37.087638,132.54062 a 5.1837624,5.1837624 0 0 0 -4.90991,5.35743 5.1837624,5.1837624 0 0 0 0.16929,1.09406 5.1837624,5.1837624 0 0 0 -3.16872,-0.89356 5.1837624,5.1837624 0 0 0 -4.90991,5.35713 5.1837624,5.1837624 0 0 0 0.057,0.53908 7.2145128,7.2145075 0 0 0 -0.81101,-0.015 7.2145128,7.2145075 0 0 0 -6.8333,7.4561 7.2145128,7.2145075 0 0 0 7.33575,6.96206 7.2145128,7.2145075 0 0 0 2.87277,-0.65764 4.1149415,4.1149418 0 0 0 4.1274,3.43706 4.1149415,4.1149418 0 0 0 1.97922,-0.55829 4.1149415,4.1149418 0 0 0 4.113,3.35361 4.1149415,4.1149418 0 0 0 3.40644,-1.91557 4.1149415,4.1149418 0 0 0 3.5409,1.91557 4.1149415,4.1149418 0 0 0 3.97133,-3.38963 4.1149415,4.1149418 0 0 0 2.65545,0.91487 4.1149415,4.1149418 0 0 0 4.01725,-3.74862 7.2145081,7.2145075 0 0 0 3.30469,0.75549 7.2145081,7.2145075 0 0 0 7.08872,-7.21328 l -0.0174,-0.50245 a 7.2145081,7.2145075 0 0 0 -7.00167,-6.69192 5.1837624,5.1837624 0 0 0 -5.38265,-4.39544 5.1837624,5.1837624 0 0 0 -0.75758,0.0985 5.1837624,5.1837624 0 0 0 0.44062,-2.08277 l -0.0126,-0.36078 a 5.1837624,5.1837624 0 0 0 -5.44208,-4.81596 5.1837624,5.1837624 0 0 0 -4.64397,3.57032 5.1837624,5.1837624 0 0 0 -5.18905,-3.57032 z" />
      <g
         id="g33"
         transform="matrix(0.58083188,0,0,0.58083188,-37.993836,71.053213)">
        <path
           style="opacity:0.8;fill:#000000;fill-opacity:0.996078;stroke:#241c1c;stroke-width:0.499998;stroke-linecap:square;stroke-linejoin:miter;stroke-dasharray:none;stroke-dashoffset:15.2239;stroke-opacity:0.984314;paint-order:markers fill stroke"
           id="path29"
           sodipodi:type="arc"
           sodipodi:cx="163.01224"
           sodipodi:cy="82.047882"
           sodipodi:rx="7.2689924"
           sodipodi:ry="7.9817314"
           sodipodi:start="0"
           sodipodi:end="3.1241394"
           sodipodi:arc-type="slice"
           d="m 170.28123,82.047882 a 7.2689924,7.9817314 0 0 1 -7.20556,7.981428 7.2689924,7.9817314 0 0 1 -7.33132,-7.842128 l 7.26789,-0.1393 z"
           transform="rotate(19.225253)" />
        <path
           style="opacity:0.8;fill:#ffffff;fill-opacity:0.996078;stroke:#241c1c;stroke-width:0.257628;stroke-linecap:square;stroke-linejoin:miter;stroke-dasharray:none;stroke-dashoffset:15.2239;stroke-opacity:0.984314;paint-order:markers fill stroke"
           id="path32"
           sodipodi:type="arc"
           sodipodi:cx="124.9108"
           sodipodi:cy="134.11229"
           sodipodi:rx="2.3695223"
           sodipodi:ry="2.3706951"
           sodipodi:start="0"
           sodipodi:end="6.230346"
           sodipodi:arc-type="arc"
           d="m 127.28032,134.11229 a 2.3695223,2.3706951 0 0 1 -2.33822,2.37049 2.3695223,2.3706951 0 0 1 -2.4,-2.30786 2.3695223,2.3706951 0 0 1 2.27482,-2.43146 2.3695223,2.3706951 0 0 1 2.46009,2.24362"
           sodipodi:open="true" />
        <path
           style="opacity:0.8;fill:#ffffff;fill-opacity:0.996078;stroke:#241c1c;stroke-width:0.103051;stroke-linecap:square;stroke-linejoin:miter;stroke-dasharray:none;stroke-dashoffset:15.2239;stroke-opacity:0.984314;paint-order:markers fill stroke"
           id="path33"
           sodipodi:type="arc"
           sodipodi:cx="129.48428"
           sodipodi:cy="134.63672"
           sodipodi:rx="0.94780928"
           sodipodi:ry="0.94827873"
           sodipodi:start="0"
           sodipodi:end="6.230346"
           sodipodi:arc-type="arc"
           d="m 130.43209,134.63672 a 0.94780928,0.94827873 0 0 1 -0.93529,0.94819 0.94780928,0.94827873 0 0 1 -0.96,-0.92314 0.94780928,0.94827873 0 0 1 0.90993,-0.97259 0.94780928,0.94827873 0 0 1 0.98404,0.89746"
           sodipodi:open="true" />
      </g>
      <g
         id="g36"
         transform="matrix(-0.58083188,0,0,0.58083188,120.90972,71.071551)">
        <path
           style="opacity:0.8;fill:#000000;fill-opacity:0.996078;stroke:#241c1c;stroke-width:0.499998;stroke-linecap:square;stroke-linejoin:miter;stroke-dasharray:none;stroke-dashoffset:15.2239;stroke-opacity:0.984314;paint-order:markers fill stroke"
           id="path34"
           sodipodi:type="arc"
           sodipodi:cx="163.01224"
           sodipodi:cy="82.047882"
           sodipodi:rx="7.2689924"
           sodipodi:ry="7.9817314"
           sodipodi:start="0"
           sodipodi:end="3.1241394"
           sodipodi:arc-type="slice"
           d="m 170.28123,82.047882 a 7.2689924,7.9817314 0 0 1 -7.20556,7.981428 7.2689924,7.9817314 0 0 1 -7.33132,-7.842128 l 7.26789,-0.1393 z"
           transform="rotate(19.225253)" />
        <path
           style="opacity:0.8;fill:#ffffff;fill-opacity:0.996078;stroke:#241c1c;stroke-width:0.257628;stroke-linecap:square;stroke-linejoin:miter;stroke-dasharray:none;stroke-dashoffset:15.2239;stroke-opacity:0.984314;paint-order:markers fill stroke"
           id="path35"
           sodipodi:type="arc"
           sodipodi:cx="124.9108"
           sodipodi:cy="134.11229"
           sodipodi:rx="2.3695223"
           sodipodi:ry="2.3706951"
           sodipodi:start="0"
           sodipodi:end="6.230346"
           sodipodi:arc-type="arc"
           d="m 127.28032,134.11229 a 2.3695223,2.3706951 0 0 1 -2.33822,2.37049 2.3695223,2.3706951 0 0 1 -2.4,-2.30786 2.3695223,2.3706951 0 0 1 2.27482,-2.43146 2.3695223,2.3706951 0 0 1 2.46009,2.24362"
           sodipodi:open="true" />
        <path
           style="opacity:0.8;fill:#ffffff;fill-opacity:0.996078;stroke:#241c1c;stroke-width:0.103051;stroke-linecap:square;stroke-linejoin:miter;stroke-dasharray:none;stroke-dashoffset:15.2239;stroke-opacity:0.984314;paint-order:markers fill stroke"
           id="path36"
           sodipodi:type="arc"
           sodipodi:cx="129.48428"
           sodipodi:cy="134.63672"
           sodipodi:rx="0.94780928"
           sodipodi:ry="0.94827873"
           sodipodi:start="0"
           sodipodi:end="6.230346"
           sodipodi:arc-type="arc"
           d="m 130.43209,134.63672 a 0.94780928,0.94827873 0 0 1 -0.93529,0.94819 0.94780928,0.94827873 0 0 1 -0.96,-0.92314 0.94780928,0.94827873 0 0 1 0.90993,-0.97259 0.94780928,0.94827873 0 0 1 0.98404,0.89746"
           sodipodi:open="true" />
      </g>
      <path
         style="opacity:0.8;fill:#ffffff;fill-opacity:0.984314;stroke:#010000;stroke-width:0.297013;stroke-linecap:square;stroke-linejoin:miter;stroke-dasharray:none;stroke-dashoffset:15.2239;stroke-opacity:0.984314;paint-order:markers fill stroke"
         d="m 43.235712,147.27777 c 4.688239,-2.31209 4.363905,-2.47364 4.363905,-2.47364"
         id="path47" />
      <path
         style="opacity:0.8;fill:none;fill-opacity:0.984314;stroke:#000000;stroke-width:0.245939;stroke-linecap:square;stroke-linejoin:miter;stroke-dasharray:none;stroke-dashoffset:15.2239;stroke-opacity:0.984314;paint-order:markers fill stroke"
         id="path44"
         sodipodi:type="arc"
         sodipodi:cx="41.475475"
         sodipodi:cy="-156.24379"
         sodipodi:rx="3.2499723"
         sodipodi:ry="2.4503193"
         sodipodi:start="0.041799011"
         sodipodi:end="3.1415927"
         sodipodi:arc-type="arc"
         d="m 44.722609,-156.1414 a 3.2499723,2.4503193 0 0 1 -3.315052,2.34739 3.2499723,2.4503193 0 0 1 -3.182054,-2.44978"
         transform="scale(1,-1)"
         sodipodi:open="true" />
      <path
         style="opacity:0.8;fill:none;fill-opacity:0.984314;stroke:#000000;stroke-width:0.463;stroke-linecap:square;stroke-linejoin:miter;stroke-dasharray:none;stroke-dashoffset:15.2239;stroke-opacity:1;paint-order:markers fill stroke"
         d="m 38.169068,163.86336 c 0,6.11555 -2.27707,6.18062 -2.27707,6.18062 l -0.97588,-0.0651"
         id="path66" />
      <path
         style="opacity:0.8;fill:none;fill-opacity:0.984314;stroke:#000000;stroke-width:0.463;stroke-linecap:square;stroke-linejoin:miter;stroke-dasharray:none;stroke-dashoffset:15.2239;stroke-opacity:1;paint-order:markers fill stroke"
         d="m 42.578198,163.92842 c 0,6.11555 2.27707,6.18061 2.27707,6.18061 l 0.97588,-0.0651"
         id="path67" />
      <g
         id="g69"
         transform="translate(-92.794862,109.34385)">
        <path
           style="opacity:0.8;fill:none;fill-opacity:0.984314;stroke:#000000;stroke-width:0.250001;stroke-linecap:square;stroke-linejoin:miter;stroke-dasharray:none;stroke-dashoffset:15.2239;stroke-opacity:1;paint-order:markers fill stroke"
           id="path68"
           sodipodi:arc-type="arc"
           sodipodi:type="arc"
           sodipodi:cx="19.873953"
           sodipodi:cy="-131.43134"
           sodipodi:rx="4.2987924"
           sodipodi:ry="2.1818511"
           sodipodi:start="0.17453293"
           sodipodi:end="2.9670597"
           d="m 24.107437,-131.05246 a 4.2987924,2.1818511 0 0 1 -4.233484,1.80298 4.2987924,2.1818511 0 0 1 -4.233484,-1.80298"
           sodipodi:open="true"
           transform="matrix(-0.2418457,0.97031472,-0.96946751,-0.24521978,0,0)" />
        <path
           style="opacity:0.8;fill:none;fill-opacity:0.984314;stroke:#000000;stroke-width:0.188588;stroke-linecap:square;stroke-linejoin:miter;stroke-dasharray:none;stroke-dashoffset:15.2239;stroke-opacity:1;paint-order:markers fill stroke"
           id="path69"
           sodipodi:type="arc"
           sodipodi:cx="-56.231369"
           sodipodi:cy="-120.93945"
           sodipodi:rx="0.61660165"
           sodipodi:ry="0.61446244"
           sodipodi:start="0"
           sodipodi:end="3.1415927"
           sodipodi:open="true"
           sodipodi:arc-type="arc"
           d="m -55.614767,-120.93945 a 0.61660165,0.61446244 0 0 1 -0.308301,0.53214 0.61660165,0.61446244 0 0 1 -0.616602,0 0.61660165,0.61446244 0 0 1 -0.308301,-0.53214"
           transform="rotate(139.5965)" />
      </g>
      <path
         style="opacity:0.8;fill:none;fill-opacity:0.984314;stroke:#000000;stroke-width:0.250001;stroke-linecap:square;stroke-linejoin:miter;stroke-dasharray:none;stroke-dashoffset:15.2239;stroke-opacity:1;paint-order:markers fill stroke"
         id="path70"
         sodipodi:arc-type="arc"
         sodipodi:type="arc"
         sodipodi:cx="168.23749"
         sodipodi:cy="9.9949389"
         sodipodi:rx="4.2987924"
         sodipodi:ry="2.1818511"
         sodipodi:start="0.17453293"
         sodipodi:end="2.9670597"
         d="M 172.47097,10.373813 A 4.2987924,2.1818511 0 0 1 168.23749,12.17679 4.2987924,2.1818511 0 0 1 164.004,10.373813"
         sodipodi:open="true"
         transform="matrix(0.2418457,0.97031472,0.96946751,-0.24521978,0,0)" />
      <path
         style="opacity:0.8;fill:none;fill-opacity:0.984314;stroke:#000000;stroke-width:0.188588;stroke-linecap:square;stroke-linejoin:miter;stroke-dasharray:none;stroke-dashoffset:15.2239;stroke-opacity:1;paint-order:markers fill stroke"
         id="path71"
         sodipodi:type="arc"
         sodipodi:cx="146.33058"
         sodipodi:cy="-92.029282"
         sodipodi:rx="0.61660165"
         sodipodi:ry="0.61446244"
         sodipodi:start="0"
         sodipodi:end="3.1415927"
         sodipodi:open="true"
         sodipodi:arc-type="arc"
         d="m 146.94718,-92.029282 a 0.61660165,0.61446244 0 0 1 -0.3083,0.53214 0.61660165,0.61446244 0 0 1 -0.6166,0 0.61660165,0.61446244 0 0 1 -0.3083,-0.53214"
         transform="matrix(0.76149871,0.64816642,0.64816642,-0.76149871,0,0)" />
      <path
         style="opacity:0.8;fill:#920000;fill-opacity:0.995316;stroke:none;stroke-width:0.25;stroke-linecap:square;stroke-linejoin:miter;stroke-dasharray:none;stroke-dashoffset:15.2239;stroke-opacity:0.996078;paint-order:markers fill stroke"
         id="path84"
         sodipodi:type="arc"
         sodipodi:cx="24.041367"
         sodipodi:cy="151.92572"
         sodipodi:rx="3.8358016"
         sodipodi:ry="3.8358016"
         sodipodi:start="0.26179939"
         sodipodi:end="0.19031065"
         sodipodi:arc-type="arc"
         d="m 27.746466,152.9185 a 3.8358016,3.8358016 0 0 1 -4.631505,2.72947 3.8358016,3.8358016 0 0 1 -2.811806,-4.58199 3.8358016,3.8358016 0 0 1 4.531004,-2.89324 3.8358016,3.8358016 0 0 1 2.973756,4.47858"
         sodipodi:open="true" />
      <path
         style="opacity:0.8;fill:#ffffff;fill-opacity:0.984314;stroke:#010000;stroke-width:0.297013;stroke-linecap:square;stroke-linejoin:miter;stroke-dasharray:none;stroke-dashoffset:15.2239;stroke-opacity:0.984314;paint-order:markers fill stroke"
         d="m 39.804531,147.27777 c -4.688239,-2.31209 -4.363905,-2.47364 -4.363905,-2.47364"
         id="path108" />
    </g>
  </g>
</svg>
