<?xml version="1.0" encoding="UTF-8" standalone="no"?>
<!-- Created with Inkscape (http://www.inkscape.org/) -->

<svg
   width="7cm"
   height="7cm"
   viewBox="0 0 70 70.000001"
   version="1.1"
   id="svg1"
   inkscape:version="1.4 (86a8ad7, 2024-10-11)"
   sodipodi:docname="Nuage jaune.svg"
   xmlns:inkscape="http://www.inkscape.org/namespaces/inkscape"
   xmlns:sodipodi="http://sodipodi.sourceforge.net/DTD/sodipodi-0.dtd"
   xmlns="http://www.w3.org/2000/svg"
   xmlns:svg="http://www.w3.org/2000/svg">
  <sodipodi:namedview
     id="namedview1"
     pagecolor="#ffffff"
     bordercolor="#000000"
     borderopacity="0.25"
     inkscape:showpageshadow="2"
     inkscape:pageopacity="0.0"
     inkscape:pagecheckerboard="0"
     inkscape:deskcolor="#d1d1d1"
     inkscape:document-units="mm"
     inkscape:zoom="1.4378367"
     inkscape:cx="335.57357"
     inkscape:cy="281.32541"
     inkscape:window-width="1920"
     inkscape:window-height="1009"
     inkscape:window-x="-8"
     inkscape:window-y="-8"
     inkscape:window-maximized="1"
     inkscape:current-layer="layer1" />
  <defs
     id="defs1" />
  <g
     inkscape:label="Calque 1"
     inkscape:groupmode="layer"
     id="layer1">
    <g
       id="g85"
       transform="translate(-83.113136,-96.471058)">
      <path
         id="path39"
         style="fill:#eab800;fill-opacity:0.995316;stroke:#241c1c;stroke-width:0.290417;stroke-linecap:square;stroke-linejoin:miter;stroke-dasharray:none;stroke-dashoffset:15.2239;stroke-opacity:0.984314;paint-order:markers fill stroke"
         d="m 113.9882,111.70474 a 5.1837846,5.1837846 0 0 0 -4.90993,5.35746 5.1837846,5.1837846 0 0 0 0.16929,1.09406 5.1837846,5.1837846 0 0 0 -3.16874,-0.89356 5.1837846,5.1837846 0 0 0 -4.90992,5.35716 5.1837846,5.1837846 0 0 0 0.057,0.53908 7.2145437,7.2145385 0 0 0 -0.81102,-0.015 7.2145437,7.2145385 0 0 0 -6.833326,7.45614 7.2145437,7.2145385 0 0 0 7.335776,6.96208 7.2145437,7.2145385 0 0 0 2.87279,-0.65764 4.1149592,4.1149595 0 0 0 4.12742,3.43707 4.1149592,4.1149595 0 0 0 1.97922,-0.55828 4.1149592,4.1149595 0 0 0 4.11302,3.35362 4.1149592,4.1149595 0 0 0 3.40645,-1.91558 4.1149592,4.1149595 0 0 0 3.54092,1.91558 4.1149592,4.1149595 0 0 0 3.97134,-3.38964 4.1149592,4.1149595 0 0 0 2.65547,0.91486 4.1149592,4.1149595 0 0 0 4.01727,-3.74862 7.2145391,7.2145385 0 0 0 3.3047,0.75549 7.2145391,7.2145385 0 0 0 7.08875,-7.21332 l -0.0174,-0.50245 a 7.2145391,7.2145385 0 0 0 -7.0017,-6.69195 5.1837846,5.1837846 0 0 0 -5.38267,-4.39546 5.1837846,5.1837846 0 0 0 -0.75759,0.0984 5.1837846,5.1837846 0 0 0 0.44062,-2.08277 l -0.0126,-0.36079 a 5.1837846,5.1837846 0 0 0 -5.4421,-4.81597 5.1837846,5.1837846 0 0 0 -4.64399,3.57033 5.1837846,5.1837846 0 0 0 -5.18907,-3.57033 z" />
      <path
         style="opacity:0.8;fill:#000000;fill-opacity:0.984314;stroke:#000000;stroke-width:0.268926;stroke-linecap:square;stroke-linejoin:miter;stroke-dasharray:none;stroke-dashoffset:15.2239;stroke-opacity:1;paint-order:markers fill stroke"
         id="path55"
         sodipodi:type="arc"
         sodipodi:cx="112.17093"
         sodipodi:cy="127.96974"
         sodipodi:rx="2.8719299"
         sodipodi:ry="2.9475069"
         sodipodi:start="0"
         sodipodi:end="6.2319481"
         sodipodi:arc-type="arc"
         d="m 115.04286,127.96974 a 2.8719299,2.9475069 0 0 1 -2.83514,2.94727 2.8719299,2.9475069 0 0 1 -2.90778,-2.87177 2.8719299,2.9475069 0 0 1 2.76065,-3.02083 2.8719299,2.9475069 0 0 1 2.9785,2.79438"
         sodipodi:open="true" />
      <path
         style="opacity:0.8;fill:#000000;fill-opacity:0.984314;stroke:#000000;stroke-width:0.268926;stroke-linecap:square;stroke-linejoin:miter;stroke-dasharray:none;stroke-dashoffset:15.2239;stroke-opacity:1;paint-order:markers fill stroke"
         id="path56"
         sodipodi:type="arc"
         sodipodi:cx="123.80981"
         sodipodi:cy="127.96974"
         sodipodi:rx="2.8719299"
         sodipodi:ry="2.9475069"
         sodipodi:start="0"
         sodipodi:end="6.2319481"
         sodipodi:arc-type="arc"
         d="m 126.68174,127.96974 a 2.8719299,2.9475069 0 0 1 -2.83515,2.94727 2.8719299,2.9475069 0 0 1 -2.90777,-2.87177 2.8719299,2.9475069 0 0 1 2.76065,-3.02083 2.8719299,2.9475069 0 0 1 2.9785,2.79438"
         sodipodi:open="true" />
      <path
         style="opacity:0.8;fill:#ffffff;fill-opacity:0.984314;stroke:#000000;stroke-width:0.111775;stroke-linecap:square;stroke-linejoin:miter;stroke-dasharray:none;stroke-dashoffset:15.2239;stroke-opacity:1;paint-order:markers fill stroke"
         id="path57"
         sodipodi:type="arc"
         sodipodi:cx="-111.61189"
         sodipodi:cy="-126.74503"
         sodipodi:rx="1.1935331"
         sodipodi:ry="1.225063"
         sodipodi:start="0"
         sodipodi:end="6.2319481"
         sodipodi:arc-type="arc"
         d="m -110.41836,-126.74503 a 1.1935331,1.225063 0 0 1 -1.17824,1.22496 1.1935331,1.225063 0 0 1 -1.20843,-1.19358 1.1935331,1.225063 0 0 1 1.14728,-1.25554 1.1935331,1.225063 0 0 1 1.23782,1.16142"
         sodipodi:open="true"
         transform="scale(-1)" />
      <path
         style="opacity:0.8;fill:none;fill-opacity:0.984314;stroke:#000000;stroke-width:0.268926;stroke-linecap:square;stroke-linejoin:miter;stroke-dasharray:none;stroke-dashoffset:15.2239;stroke-opacity:1;paint-order:markers fill stroke"
         id="path59"
         sodipodi:type="arc"
         sodipodi:cx="-105.65204"
         sodipodi:cy="-131.20734"
         sodipodi:rx="3.7272913"
         sodipodi:ry="3.0986612"
         sodipodi:start="0.30664211"
         sodipodi:end="1.5824579"
         sodipodi:arc-type="arc"
         d="m -102.09862,-130.27198 a 3.7272913,3.0986612 0 0 1 -3.59688,2.16309"
         transform="rotate(177.00008)"
         sodipodi:open="true"
         inkscape:transform-center-x="-1.1707026"
         inkscape:transform-center-y="1.2630291" />
      <path
         style="opacity:0.8;fill:none;fill-opacity:0.984314;stroke:#000000;stroke-width:0.268926;stroke-linecap:square;stroke-linejoin:miter;stroke-dasharray:none;stroke-dashoffset:15.2239;stroke-opacity:1;paint-order:markers fill stroke"
         id="path60"
         sodipodi:type="arc"
         sodipodi:cx="129.30197"
         sodipodi:cy="-118.89424"
         sodipodi:rx="3.7272913"
         sodipodi:ry="3.0986612"
         sodipodi:start="0.30664211"
         sodipodi:end="1.5824579"
         sodipodi:arc-type="arc"
         d="m 132.85539,-117.95888 a 3.7272913,3.0986612 0 0 1 -3.59688,2.16309"
         transform="matrix(0.99862961,0.05233456,0.05233456,-0.99862961,0,0)"
         sodipodi:open="true"
         inkscape:transform-center-x="1.1707087"
         inkscape:transform-center-y="1.263031" />
      <path
         style="opacity:0.8;fill:none;fill-opacity:0.984314;stroke:#000000;stroke-width:0.186407;stroke-linecap:square;stroke-linejoin:miter;stroke-dasharray:none;stroke-dashoffset:15.2239;stroke-opacity:1;paint-order:markers fill stroke"
         id="path61"
         sodipodi:type="arc"
         sodipodi:cx="-135.94006"
         sodipodi:cy="-124.83867"
         sodipodi:rx="3.2213602"
         sodipodi:ry="1.7226523"
         sodipodi:start="0.30664211"
         sodipodi:end="1.5824579"
         sodipodi:arc-type="arc"
         d="m -132.86897,-124.31867 a 3.2213602,1.7226523 0 0 1 -3.10866,1.20254"
         transform="matrix(-0.99758144,-0.0695073,0.17004899,-0.98543561,0,0)"
         sodipodi:open="true"
         inkscape:transform-center-x="0.35380087"
         inkscape:transform-center-y="0.71812263" />
      <path
         style="opacity:0.8;fill:none;fill-opacity:0.984314;stroke:#000000;stroke-width:0.186407;stroke-linecap:square;stroke-linejoin:miter;stroke-dasharray:none;stroke-dashoffset:15.2239;stroke-opacity:1;paint-order:markers fill stroke"
         id="path62"
         sodipodi:type="arc"
         sodipodi:cx="97.696983"
         sodipodi:cy="-141.37239"
         sodipodi:rx="3.2213602"
         sodipodi:ry="1.7226523"
         sodipodi:start="0.30664211"
         sodipodi:end="1.5824579"
         sodipodi:arc-type="arc"
         d="m 100.76808,-140.85239 a 3.2213602,1.7226523 0 0 1 -3.108662,1.20253"
         transform="matrix(0.99758144,-0.0695073,-0.17004899,-0.98543561,0,0)"
         sodipodi:open="true"
         inkscape:transform-center-x="-0.35380133"
         inkscape:transform-center-y="0.71812453" />
      <g
         id="g80"
         transform="matrix(1.0027213,0,0,0.79124256,-0.10373105,26.76693)">
        <path
           style="opacity:0.8;fill:none;fill-opacity:0.984314;stroke:#000000;stroke-width:0.282197;stroke-linecap:square;stroke-linejoin:miter;stroke-dasharray:none;stroke-dashoffset:15.2239;stroke-opacity:1;paint-order:markers fill stroke"
           id="path63"
           sodipodi:type="arc"
           sodipodi:cx="117.29288"
           sodipodi:cy="135.12987"
           sodipodi:rx="3.8938823"
           sodipodi:ry="0.81367189"
           sodipodi:start="0.1063191"
           sodipodi:end="3.1415927"
           sodipodi:open="true"
           sodipodi:arc-type="arc"
           d="m 121.16477,135.21621 a 3.8938823,0.81367189 0 0 1 -4.07879,0.72618 3.8938823,0.81367189 0 0 1 -3.68699,-0.81252" />
        <rect
           style="opacity:0.8;fill:none;fill-opacity:0.984314;stroke:#000000;stroke-width:0.140604;stroke-linecap:square;stroke-linejoin:miter;stroke-dasharray:none;stroke-dashoffset:15.2239;stroke-opacity:1;paint-order:markers fill stroke"
           id="rect64"
           width="0.76837212"
           height="0.027940804"
           x="5.6115746"
           y="176.20248"
           transform="rotate(-38.036118)" />
        <rect
           style="opacity:0.8;fill:none;fill-opacity:0.984314;stroke:#000000;stroke-width:0.113106;stroke-linecap:square;stroke-linejoin:miter;stroke-dasharray:none;stroke-dashoffset:15.2239;stroke-opacity:1;paint-order:markers fill stroke"
           id="rect65"
           width="0.61810273"
           height="0.022476459"
           x="-179.05238"
           y="31.71225"
           transform="matrix(-0.7876225,-0.61615809,-0.61615809,0.7876225,0,0)"
           inkscape:transform-center-x="1.5059664"
           inkscape:transform-center-y="0.16369225" />
      </g>
      <path
         style="opacity:0.8;fill:none;fill-opacity:0.984314;stroke:#000000;stroke-width:0.463;stroke-linecap:square;stroke-linejoin:miter;stroke-dasharray:none;stroke-dashoffset:15.2239;stroke-opacity:1;paint-order:markers fill stroke"
         d="m 115.25315,143.0574 c 0,6.11555 -2.27707,6.18061 -2.27707,6.18061 l -0.97588,-0.0651"
         id="path77" />
      <path
         style="opacity:0.8;fill:none;fill-opacity:0.984314;stroke:#000000;stroke-width:0.463;stroke-linecap:square;stroke-linejoin:miter;stroke-dasharray:none;stroke-dashoffset:15.2239;stroke-opacity:1;paint-order:markers fill stroke"
         d="m 119.66228,143.12246 c 0,6.11555 2.27707,6.18061 2.27707,6.18061 l 0.97588,-0.0651"
         id="path78" />
      <path
         style="opacity:0.8;fill:none;fill-opacity:0.995316;stroke:#000000;stroke-width:0.250124;stroke-linecap:square;stroke-linejoin:miter;stroke-dasharray:none;stroke-dashoffset:15.2239;stroke-opacity:0.996078;paint-order:markers fill stroke"
         id="path79"
         sodipodi:type="arc"
         sodipodi:cx="135.15385"
         sodipodi:cy="111.20691"
         sodipodi:rx="3.2178733"
         sodipodi:ry="2.5075915"
         sodipodi:start="0"
         sodipodi:end="3.470014"
         sodipodi:arc-type="arc"
         d="m 138.37173,111.20691 a 3.2178733,2.5075915 0 0 1 -1.92304,2.29562 3.2178733,2.5075915 0 0 1 -3.47065,-0.44815 3.2178733,2.5075915 0 0 1 -0.87007,-2.65629"
         sodipodi:open="true"
         transform="matrix(0.98256509,0.18591894,-0.22941873,0.97332782,0,0)" />
      <path
         style="opacity:0.8;fill:#ffffff;fill-opacity:0.984314;stroke:#000000;stroke-width:0.111775;stroke-linecap:square;stroke-linejoin:miter;stroke-dasharray:none;stroke-dashoffset:15.2239;stroke-opacity:1;paint-order:markers fill stroke"
         id="path80"
         sodipodi:type="arc"
         sodipodi:cx="-124.4539"
         sodipodi:cy="-126.74503"
         sodipodi:rx="1.1935331"
         sodipodi:ry="1.225063"
         sodipodi:start="0"
         sodipodi:end="6.2319481"
         sodipodi:arc-type="arc"
         d="m -123.26037,-126.74503 a 1.1935331,1.225063 0 0 1 -1.17825,1.22496 1.1935331,1.225063 0 0 1 -1.20842,-1.19358 1.1935331,1.225063 0 0 1 1.14728,-1.25554 1.1935331,1.225063 0 0 1 1.23782,1.16142"
         sodipodi:open="true"
         transform="scale(-1)" />
      <path
         style="opacity:0.8;fill:none;fill-opacity:0.984314;stroke:#000000;stroke-width:0.188588;stroke-linecap:square;stroke-linejoin:miter;stroke-dasharray:none;stroke-dashoffset:15.2239;stroke-opacity:1;paint-order:markers fill stroke"
         id="path81"
         sodipodi:type="arc"
         sodipodi:cx="-171.11298"
         sodipodi:cy="30.533028"
         sodipodi:rx="0.61660165"
         sodipodi:ry="0.61446244"
         sodipodi:start="0"
         sodipodi:end="3.1415927"
         sodipodi:open="true"
         sodipodi:arc-type="arc"
         d="m -170.49637,30.533028 a 0.61660165,0.61446244 0 0 1 -0.30831,0.53214 0.61660165,0.61446244 0 0 1 -0.6166,0 0.61660165,0.61446244 0 0 1 -0.3083,-0.53214"
         transform="matrix(-0.76149871,-0.64816642,-0.64816642,0.76149871,0,0)" />
      <g
         id="g83"
         transform="matrix(-1,0,0,1,254.35903,-0.2348334)">
        <path
           style="opacity:0.8;fill:none;fill-opacity:0.995316;stroke:#000000;stroke-width:0.250124;stroke-linecap:square;stroke-linejoin:miter;stroke-dasharray:none;stroke-dashoffset:15.2239;stroke-opacity:0.996078;paint-order:markers fill stroke"
           id="path82"
           sodipodi:type="arc"
           sodipodi:cx="154.35133"
           sodipodi:cy="107.7812"
           sodipodi:rx="3.2178733"
           sodipodi:ry="2.5075915"
           sodipodi:start="0"
           sodipodi:end="3.470014"
           sodipodi:arc-type="arc"
           d="m 157.56921,107.7812 a 3.2178733,2.5075915 0 0 1 -1.92304,2.29562 3.2178733,2.5075915 0 0 1 -3.47065,-0.44816 3.2178733,2.5075915 0 0 1 -0.87007,-2.65628"
           sodipodi:open="true"
           transform="matrix(0.98256509,0.18591894,-0.22941873,0.97332782,0,0)" />
        <path
           style="opacity:0.8;fill:none;fill-opacity:0.984314;stroke:#000000;stroke-width:0.188588;stroke-linecap:square;stroke-linejoin:miter;stroke-dasharray:none;stroke-dashoffset:15.2239;stroke-opacity:1;paint-order:markers fill stroke"
           id="path83"
           sodipodi:type="arc"
           sodipodi:cx="-186.22765"
           sodipodi:cy="17.976236"
           sodipodi:rx="0.61660165"
           sodipodi:ry="0.61446244"
           sodipodi:start="0"
           sodipodi:end="3.1415927"
           sodipodi:open="true"
           sodipodi:arc-type="arc"
           d="m -185.61104,17.976236 a 0.61660165,0.61446244 0 0 1 -0.30831,0.53214 0.61660165,0.61446244 0 0 1 -0.6166,0 0.61660165,0.61446244 0 0 1 -0.3083,-0.53214"
           transform="matrix(-0.76149871,-0.64816642,-0.64816642,0.76149871,0,0)" />
      </g>
      <path
         style="opacity:0.8;fill:#fff983;fill-opacity:0.995316;stroke:none;stroke-width:0.204395;stroke-linecap:square;stroke-linejoin:miter;stroke-dasharray:none;stroke-dashoffset:15.2239;stroke-opacity:0.996078;paint-order:markers fill stroke"
         id="path85"
         sodipodi:type="arc"
         sodipodi:cx="104.43256"
         sodipodi:cy="128.54333"
         sodipodi:rx="3.1359997"
         sodipodi:ry="3.1359997"
         sodipodi:start="0.26179939"
         sodipodi:end="0.19031065"
         sodipodi:arc-type="arc"
         d="m 107.46171,129.35499 a 3.1359997,3.1359997 0 0 1 -3.78654,2.23151 3.1359997,3.1359997 0 0 1 -2.29882,-3.74605 3.1359997,3.1359997 0 0 1 3.70437,-2.3654 3.1359997,3.1359997 0 0 1 2.43122,3.6615"
         sodipodi:open="true" />
    </g>
  </g>
</svg>
